<svg width="16" height="16" viewBox="0 0 16 16" fill="none" xmlns="http://www.w3.org/2000/svg">
<path d="M4.19487 15.8862C3.08585 15.8862 2.04617 15.4732 1.26719 14.7233C0.488206 13.9734 0.0587158 12.9733 0.0587158 11.9061C0.0587158 10.8392 0.487892 9.8388 1.26719 9.08921L9.83001 0.849518C11.0551 -0.328746 12.9588 -0.275916 14.2579 0.974197C15.5571 2.22431 15.6129 4.05586 14.3878 5.23502L6.34358 12.9757C5.58844 13.7023 4.35864 13.7035 3.60225 12.9757C2.84648 12.2482 2.84679 11.0648 3.60225 10.3378L9.05134 5.09435C9.23519 4.91744 9.53291 4.91744 9.71675 5.09435C9.9006 5.27125 9.9006 5.55774 9.71675 5.73465L4.26766 10.9781C3.87895 11.3522 3.87895 11.9611 4.26766 12.3354C4.65699 12.7094 5.28946 12.7088 5.67817 12.3354L13.7224 4.59472C14.5679 3.78084 14.5124 2.49963 13.5925 1.6145C12.6727 0.729367 11.3412 0.675933 10.4954 1.48982L1.9326 9.72951C1.33119 10.3082 0.999892 11.0814 0.999892 11.9061C0.999892 12.7312 1.33119 13.5043 1.9326 14.083C2.53401 14.6617 3.33746 14.9805 4.19487 14.9805C5.05197 14.9805 5.85542 14.6617 6.45683 14.083L15.0197 5.84333C15.2035 5.66642 15.5012 5.66642 15.6851 5.84333C15.8689 6.02023 15.8689 6.30672 15.6851 6.48363L7.12224 14.7233C6.34326 15.4729 5.30358 15.8862 4.19487 15.8862Z" fill="#0069B4"/>
</svg>
