<svg width="64" height="64" viewBox="0 0 64 64" fill="none" xmlns="http://www.w3.org/2000/svg">
<path fill-rule="evenodd" clip-rule="evenodd" d="M32 64C49.6731 64 64 49.6731 64 32C64 14.3269 49.6731 0 32 0C14.3269 0 0 14.3269 0 32C0 49.6731 14.3269 64 32 64ZM31.767 11.8278H31.621C30.6482 11.8278 29.8699 12.6061 29.8699 13.579V32.6251C29.8699 33.4764 30.3076 34.279 31.0616 34.7168L40.8163 40.5696C40.8152 40.6048 40.8147 40.6401 40.8147 40.6755C40.8147 42.5785 42.3574 44.1211 44.2603 44.1211C46.1633 44.1211 47.7059 42.5785 47.7059 40.6755C47.7059 38.7725 46.1633 37.2299 44.2603 37.2299C43.6837 37.2299 43.1401 37.3716 42.6625 37.622L33.5181 32.1873V13.579C33.5181 12.6061 32.7398 11.8278 31.767 11.8278Z" fill="#0069B4"/>
</svg>
