<svg width="64" height="64" viewBox="0 0 64 64" fill="none" xmlns="http://www.w3.org/2000/svg">
<path fill-rule="evenodd" clip-rule="evenodd" d="M64 32C64 49.6731 49.6731 64 32 64C14.3269 64 0 49.6731 0 32C0 14.3269 14.3269 0 32 0C49.6731 0 64 14.3269 64 32ZM19.35 22.054C19.35 20.1874 20.8632 18.6743 22.7297 18.6743H44.3513C44.4252 18.6743 44.4979 18.6791 44.5693 18.6885L46.3074 18.6895C46.5994 18.1089 47.0585 17.6042 47.6634 17.2549C49.3136 16.3022 51.4235 16.8676 52.3762 18.5177C53.3289 20.1678 52.7636 22.2778 51.1134 23.2305C49.4754 24.1762 47.3842 23.626 46.4218 22.0038L41.0786 21.975C41.0538 21.9752 41.0292 21.975 41.0046 21.9743H22.7297C22.6857 21.9743 22.65 22.01 22.65 22.054V33.2972C22.65 35.2168 23.364 36.5283 24.4584 37.3981C25.6015 38.3066 27.3146 38.8501 29.446 38.8501H35.5C37.6337 38.8501 39.4715 38.3049 40.7311 37.3666C41.9381 36.4675 42.7013 35.1529 42.7013 33.2972V25.9299C42.7013 25.0186 43.4401 24.2799 44.3513 24.2799C45.2626 24.2799 46.0013 25.0186 46.0013 25.9299V33.2972C46.0013 36.2181 44.7271 38.5049 42.7026 40.013C40.7306 41.482 38.1428 42.1501 35.5 42.1501H29.446C26.8008 42.1501 24.2909 41.4803 22.4052 39.9815C20.4707 38.4441 19.35 36.1542 19.35 33.2972V22.054ZM24.2297 45.4055C23.4013 45.4055 22.7297 46.077 22.7297 46.9055C22.7297 47.7339 23.4013 48.4055 24.2297 48.4055H41.9865C42.8149 48.4055 43.4865 47.7339 43.4865 46.9055C43.4865 46.077 42.8149 45.4055 41.9865 45.4055H24.2297Z" fill="#0069B4"/>
</svg>
