<svg width="607" height="600" viewBox="0 0 607 600" fill="none" xmlns="http://www.w3.org/2000/svg">
<path d="M408.364 458.886C381.779 458.742 355.953 467.742 335.215 484.377C314.478 501.013 300.09 524.272 294.465 550.256C288.84 576.239 292.319 603.367 304.319 627.09C316.319 650.813 336.11 669.689 360.375 680.553C375.305 687.486 391.576 691.053 408.038 690.999C432.268 691.028 455.901 683.484 475.632 669.42C495.362 655.357 510.205 635.479 518.082 612.565C525.96 589.652 526.479 564.849 519.567 541.626C512.655 518.403 498.658 497.921 479.532 483.044L475.288 492.512L426.646 470.312L430.89 460.845C423.452 459.545 415.915 458.89 408.364 458.886ZM408.364 637.46C399.476 637.412 390.695 635.522 382.574 631.91C369.698 625.906 359.244 615.706 352.924 602.982C346.605 590.258 344.796 575.765 347.794 561.877C350.791 547.99 358.417 535.534 369.422 526.549C380.427 517.564 394.158 512.584 408.364 512.426C417.269 512.309 426.086 514.206 434.154 517.976C447.03 523.98 457.485 534.18 463.804 546.904C470.123 559.628 471.932 574.121 468.934 588.008C465.937 601.895 458.311 614.352 447.306 623.337C436.301 632.322 422.57 637.302 408.364 637.46Z" fill="white" fill-opacity="0.03"/>
<path d="M190.942 -68.9994C166.712 -69.0284 143.079 -61.4836 123.348 -47.4204C103.617 -33.3572 88.7747 -13.4788 80.897 9.43474C73.0194 32.3482 72.5003 57.1509 79.4123 80.374C86.3243 103.597 100.322 124.079 119.447 138.956L123.365 130.141L172.007 152.34L168.09 161.155C175.42 162.441 182.847 163.096 190.289 163.114C216.902 163.334 242.781 154.389 263.576 137.779C284.371 121.17 298.817 97.9095 304.485 71.9058C310.153 45.9021 306.698 18.7399 294.701 -5.01704C282.704 -28.774 262.896 -47.6779 238.605 -58.5527C223.675 -65.4861 207.403 -69.0525 190.942 -68.9994ZM190.615 109.574C181.71 109.691 172.894 107.794 164.825 104.024C151.949 98.0204 141.495 87.8204 135.176 75.0963C128.856 62.3721 127.047 47.8787 130.045 33.9916C133.042 20.1046 140.669 7.64774 151.674 -1.33705C162.678 -10.3218 176.409 -15.3016 190.615 -15.46C199.503 -15.412 208.285 -13.5223 216.406 -9.91016C229.281 -3.90621 239.736 6.29379 246.055 19.0179C252.374 31.7421 254.183 46.2355 251.186 60.1226C248.188 74.0096 240.562 86.4665 229.557 95.4512C218.552 104.436 204.821 109.416 190.615 109.574Z" fill="white" fill-opacity="0.03"/>
<path d="M501.732 76.2753C449.171 76.2753 417.505 125.244 398.897 154.299L387.471 171.928C361.354 212.736 333.931 254.849 300.632 311.653C267.333 368.457 239.584 413.182 208.897 460.192C191.595 487.288 158.622 509.161 126.629 509.161C117.623 509.24 108.708 507.345 100.512 503.611C81.1697 494.721 66.1274 478.543 58.6662 458.606C51.205 438.669 51.9304 416.59 60.6841 397.185L168.09 161.155L172.007 152.34L123.365 130.141L119.447 138.956L12.0416 374.986C-2.66966 407.282 -3.95259 444.099 8.4749 477.341C20.9024 510.583 46.0229 537.529 78.313 552.254C93.3665 559.164 109.739 562.728 126.303 562.701C177.23 562.701 227.179 530.708 253.948 489.247C284.962 441.91 311.732 398.165 346.663 338.749C381.594 279.333 406.405 241.138 432.522 200.983L443.948 183.354C468.433 145.158 483.776 129.815 502.058 129.815C509.449 130.112 516.688 132.005 523.278 135.365C546.457 145.811 567.023 161.481 539.274 222.529L430.89 460.845L426.646 470.312L475.288 492.512L479.532 483.044L587.917 244.729C631.336 149.729 588.896 106.31 545.477 86.722C531.848 80.0443 516.907 76.4762 501.732 76.2753Z" fill="white" fill-opacity="0.03"/>
</svg>
