<svg width="607" height="760" viewBox="0 0 607 760" fill="none" xmlns="http://www.w3.org/2000/svg">
<path d="M408.364 527.886C381.779 527.742 355.953 536.742 335.215 553.377C314.478 570.013 300.09 593.272 294.465 619.255C288.84 645.239 292.319 672.366 304.319 696.089C316.319 719.812 336.11 738.688 360.374 749.552C375.305 756.486 391.576 760.052 408.038 759.999C432.267 760.028 455.9 752.483 475.631 738.42C495.362 724.357 510.205 704.478 518.082 681.565C525.96 658.651 526.479 633.849 519.567 610.626C512.655 587.403 498.658 566.921 479.532 552.044L475.288 561.511L426.646 539.312L430.89 529.845C423.452 528.545 415.915 527.89 408.364 527.886V527.886ZM408.364 706.46C399.476 706.412 390.695 704.522 382.574 700.91C369.698 694.906 359.244 684.706 352.924 671.982C346.605 659.258 344.796 644.764 347.794 630.877C350.791 616.99 358.417 604.533 369.422 595.548C380.427 586.564 394.158 581.584 408.364 581.425C417.269 581.308 426.086 583.205 434.154 586.975C447.03 592.979 457.485 603.179 463.804 615.903C470.123 628.627 471.932 643.121 468.934 657.008C465.937 670.895 458.311 683.352 447.306 692.337C436.301 701.321 422.57 706.301 408.364 706.46" fill="#0069B4" fill-opacity="0.05"/>
<path d="M190.942 0.00034056C166.712 -0.0286125 143.079 7.51611 123.348 21.5793C103.617 35.6426 88.7747 55.521 80.8971 78.4345C73.0194 101.348 72.5003 126.151 79.4123 149.374C86.3243 172.597 100.322 193.079 119.447 207.955L123.365 199.141L172.007 221.34L168.09 230.155C175.42 231.44 182.847 232.096 190.289 232.113C216.902 232.334 242.781 223.388 263.576 206.779C284.372 190.17 298.817 166.909 304.485 140.906C310.153 114.902 306.698 87.7397 294.701 63.9827C282.704 40.2258 262.896 21.3218 238.605 10.4471C223.675 3.51364 207.403 -0.0527754 190.942 0.00034056V0.00034056ZM190.615 178.574C181.71 178.691 172.894 176.794 164.825 173.024C151.949 167.02 141.495 156.82 135.176 144.096C128.857 131.372 127.047 116.878 130.045 102.991C133.042 89.1043 140.669 76.6475 151.674 67.6627C162.679 58.6779 176.409 53.6982 190.615 53.5398C199.503 53.5877 208.285 55.4774 216.406 59.0896C229.282 65.0935 239.736 75.2935 246.055 88.0177C252.374 100.742 254.183 115.235 251.186 129.122C248.188 143.009 240.562 155.466 229.557 164.451C218.552 173.436 204.821 178.416 190.615 178.574" fill="#0069B4" fill-opacity="0.05"/>
<path d="M501.731 145.275C449.171 145.275 417.505 194.244 398.897 223.299L387.471 240.928C361.354 281.735 333.931 323.848 300.632 380.653C267.333 437.457 239.584 482.182 208.897 529.192C191.595 556.288 158.622 578.161 126.629 578.161C117.623 578.239 108.708 576.345 100.512 572.611C81.1697 563.721 66.1274 547.543 58.6662 527.606C51.205 507.668 51.9304 485.59 60.6841 466.185L168.089 230.154L172.007 221.34L123.364 199.141L119.447 207.955L12.0416 443.986C-2.66966 476.282 -3.95259 513.099 8.4749 546.341C20.9024 579.583 46.0229 606.529 78.313 621.254C93.3665 628.163 109.739 631.727 126.303 631.7C177.23 631.7 227.179 599.707 253.948 558.247C284.962 510.91 311.732 467.164 346.663 407.749C381.594 348.333 406.405 310.137 432.522 269.983L443.948 252.354C468.433 214.158 483.776 198.814 502.058 198.814C509.449 199.111 516.688 201.005 523.278 204.364C546.457 214.811 567.023 230.481 539.274 291.529L430.89 529.845L426.646 539.312L475.288 561.511L479.532 552.044L587.917 313.728C631.336 218.728 588.896 175.309 545.477 155.722C531.848 149.044 516.907 145.476 501.731 145.275" fill="#0069B4" fill-opacity="0.05"/>
</svg>
