<svg width="512" height="45" viewBox="0 0 512 45" fill="none" xmlns="http://www.w3.org/2000/svg">
<path d="M511.964 22.7776C512.292 17.3034 510.391 11.9255 506.681 7.82695C502.97 3.72842 497.753 1.24499 492.178 0.92298C486.602 0.600969 481.125 2.46676 476.95 6.10989C472.776 9.75303 470.246 14.8751 469.918 20.3493H0V25.2058H469.918C470.246 30.68 472.776 35.8021 476.95 39.4452C481.125 43.0883 486.602 44.9541 492.178 44.6321C497.753 44.3101 502.97 41.8267 506.681 37.7282C510.391 33.6296 512.292 28.2517 511.964 22.7776ZM490.941 38.5614C487.761 38.5614 484.653 37.6357 482.01 35.9014C479.366 34.167 477.305 31.7019 476.089 28.8178C474.872 25.9337 474.553 22.76 475.174 19.6983C475.794 16.6365 477.325 13.8241 479.573 11.6167C481.822 9.40927 484.686 7.906 487.805 7.29698C490.923 6.68795 494.156 7.00053 497.093 8.19517C500.031 9.38981 502.541 11.4129 504.308 14.0085C506.074 16.6042 507.017 19.6558 507.017 22.7776C507.017 24.8503 506.601 26.9028 505.793 28.8178C504.986 30.7328 503.801 32.4728 502.309 33.9384C500.816 35.4041 499.043 36.5667 497.093 37.3599C495.143 38.1531 493.052 38.5614 490.941 38.5614Z" fill="white"/>
</svg>
