<svg width="64" height="64" viewBox="0 0 64 64" fill="none" xmlns="http://www.w3.org/2000/svg">
<path fill-rule="evenodd" clip-rule="evenodd" d="M32 64C49.6731 64 64 49.6731 64 32C64 14.3269 49.6731 0 32 0C14.3269 0 0 14.3269 0 32C0 49.6731 14.3269 64 32 64ZM42.7932 21.2666C44.4412 20.3151 45.0059 18.2078 44.0544 16.5598C43.1029 14.9118 40.9956 14.3471 39.3476 15.2986C38.662 15.6944 38.164 16.2902 37.8845 16.9698H36.8754H20.4444C19.1371 16.9698 17.8833 17.4891 16.9589 18.4136C16.0345 19.338 15.5152 20.5918 15.5152 21.8991V41.6163C15.5152 42.9236 16.0345 44.1774 16.9589 45.1018C17.8833 46.0262 19.1371 46.5456 20.4444 46.5456H43.4478C44.7551 46.5456 46.0089 46.0262 46.9333 45.1018C47.8578 44.1774 48.3771 42.9236 48.3771 41.6163V28.4715C48.3771 27.1642 47.8578 25.9104 46.9333 24.986C46.0089 24.0615 44.7551 23.5422 43.4478 23.5422H41.8047H38.5185H20.4444C20.0087 23.5422 19.5907 23.3691 19.2826 23.0609C18.9745 22.7528 18.8013 22.3349 18.8013 21.8991C18.8013 21.4633 18.9745 21.0454 19.2826 20.7373C19.5907 20.4291 20.0087 20.256 20.4444 20.256H36.8754H38.2457C39.258 21.7085 41.2318 22.1681 42.7932 21.2666ZM45.1986 40.0909V39.2728H45.0909H43.6364C42.4791 39.2728 41.3692 38.813 40.5508 37.9947C39.7325 37.1763 39.2727 36.0664 39.2727 34.9091C39.2727 33.7518 39.7325 32.6419 40.5508 31.8236C41.3692 31.0052 42.4791 30.5455 43.6364 30.5455H45.0909H45.1986V30.2323V28.5892C45.1986 28.1534 45.0255 27.7355 44.7174 27.4273C44.4092 27.1192 43.9913 26.9461 43.5555 26.9461H20.5522C19.9926 26.9469 19.437 26.8524 18.9091 26.6667V41.734C18.9091 42.1697 19.0822 42.5877 19.3903 42.8958C19.6985 43.2039 20.1164 43.3771 20.5522 43.3771H43.5555C43.9913 43.3771 44.4092 43.2039 44.7174 42.8958C45.0255 42.5877 45.1986 42.1697 45.1986 41.734V40.0909ZM45.0909 36.3638H43.6364C43.2506 36.3638 42.8806 36.2105 42.6078 35.9377C42.3351 35.665 42.1818 35.295 42.1818 34.9092C42.1818 34.5234 42.3351 34.1535 42.6078 33.8807C42.8806 33.6079 43.2506 33.4547 43.6364 33.4547H45.0909V36.3638Z" fill="#0069B4"/>
</svg>
