<svg width="392" height="94" viewBox="0 0 392 94" fill="none" xmlns="http://www.w3.org/2000/svg">
<path d="M391.964 22.7776C392.292 17.3034 390.391 11.9255 386.681 7.82695C382.97 3.72842 377.753 1.24499 372.178 0.92298C366.602 0.600969 361.125 2.46676 356.95 6.10989C352.776 9.75303 350.246 14.8751 349.918 20.3493H0V25.2058H349.918C350.246 30.68 352.776 35.8021 356.95 39.4452C361.125 43.0883 366.602 44.9541 372.178 44.6321C377.753 44.3101 382.97 41.8267 386.681 37.7282C390.391 33.6296 392.292 28.2517 391.964 22.7776ZM370.941 38.5614C367.761 38.5614 364.653 37.6357 362.01 35.9014C359.366 34.167 357.305 31.7019 356.089 28.8178C354.872 25.9337 354.553 22.76 355.174 19.6983C355.794 16.6365 357.325 13.8241 359.573 11.6167C361.822 9.40927 364.686 7.906 367.805 7.29698C370.923 6.68795 374.156 7.00053 377.093 8.19517C380.031 9.38981 382.541 11.4129 384.308 14.0085C386.074 16.6042 387.017 19.6558 387.017 22.7776C387.017 24.8503 386.601 26.9028 385.793 28.8178C384.985 30.7328 383.801 32.4728 382.309 33.9384C380.816 35.4041 379.043 36.5667 377.093 37.3599C375.143 38.1531 373.052 38.5614 370.941 38.5614Z" fill="white"/>
<path d="M86.0694 62.2171C83.7833 62.2232 81.5754 63.0633 79.8479 64.5844C78.1203 66.1054 76.9879 68.2063 76.6571 70.5043H0.5V73.0542H76.6571C76.8235 75.5902 77.9747 77.9552 79.8576 79.6288C81.7404 81.3025 84.2006 82.1478 86.6969 81.9788C89.1932 81.8097 91.5212 80.6401 93.1686 78.7273C94.8161 76.8145 95.6482 74.3152 95.4817 71.7792C95.4492 69.2535 94.4471 66.8404 92.689 65.0543C90.9308 63.2682 88.5556 62.2502 86.0694 62.2171Z" fill="white"/>
<path d="M25.7325 82C24.2352 82.0264 22.797 82.5892 21.6794 83.586C20.5617 84.5828 19.8388 85.9475 19.642 87.4321H0V89.0782H19.642C19.9615 90.5426 20.7962 91.8436 21.9942 92.7444C23.1922 93.6452 24.6739 94.0858 26.1695 93.9861C27.665 93.8864 29.0751 93.253 30.1429 92.2012C31.2107 91.1493 31.8654 89.749 31.9877 88.2551C31.9877 86.5962 31.3286 85.0052 30.1556 83.8321C28.9825 82.659 27.3915 82 25.7325 82Z" fill="white"/>
</svg>
