<svg width="64" height="64" viewBox="0 0 64 64" fill="none" xmlns="http://www.w3.org/2000/svg">
<path fill-rule="evenodd" clip-rule="evenodd" d="M64 32C64 49.6731 49.6731 64 32 64C14.3269 64 0 49.6731 0 32C0 14.3269 14.3269 0 32 0C49.6731 0 64 14.3269 64 32ZM17.5 29.087L11.5217 26.5335C10.8268 26.2368 10.8259 25.4489 11.5201 25.1511L30.0759 17.1903C30.6669 16.9368 31.38 16.9365 31.9713 17.1897L50.4792 25.1138C51.0753 25.369 51.732 25.7077 51.732 26.3435L51.689 39.6345C52.1472 39.9189 52.5452 40.3154 52.8379 40.8124C53.8038 42.452 53.2575 44.5641 51.6179 45.53C49.9782 46.4958 47.8661 45.9496 46.9003 44.3099C45.9344 42.6703 46.4807 40.5581 48.1203 39.5923C48.1509 39.5743 48.1816 39.5569 48.2124 39.5399L48.3045 28.1645C48.3047 28.0603 48.3054 27.959 48.3065 27.8606L44.5 29.3974V36.5788C44.5 37.1721 44.1502 37.7097 43.6078 37.9501L31.6078 43.2683C31.2207 43.4399 30.7793 43.4399 30.3922 43.2683L18.3922 37.9501C17.8498 37.7097 17.5 37.1721 17.5 36.5788V29.087ZM41.5 30.6086V35.6029L31 40.2563L20.5 35.6029V30.3684L30.0749 34.4581C30.6666 34.7108 31.3797 34.71 31.9704 34.456L41.5 30.6086ZM19.5412 25.4201C19.1329 25.5987 19.1334 26.0715 19.5422 26.2495L30.4558 31.0043C30.8039 31.1559 31.2233 31.1554 31.5708 31.003L42.4593 26.2267C42.8669 26.0479 42.8664 25.5759 42.4584 25.3977L31.5714 20.6432C31.2235 20.4913 30.8041 20.4915 30.4564 20.6436L19.5412 25.4201Z" fill="#0069B4"/>
</svg>
