<?xml version="1.0" encoding="utf-8"?>
<!-- Generator: Adobe Illustrator 23.0.1, SVG Export Plug-In . SVG Version: 6.00 Build 0)  -->
<svg version="1.1" id="Layer_1" xmlns="http://www.w3.org/2000/svg" xmlns:xlink="http://www.w3.org/1999/xlink" x="0px" y="0px"
	 viewBox="0 0 322.9 60" style="enable-background:new 0 0 322.9 60;" xml:space="preserve">
<style type="text/css">
	.st0{fill:#FFFFFF;}
	.st1{opacity:0.5;fill:#FFFFFF;}
</style>
<g>
	<path class="st0" d="M17.8,44.8l0.5,3.1h0.2l0.6-3.1l5-25.9h11.2L23.6,60H13.2L1.5,18.9h11.3L17.8,44.8z"/>
	<path class="st0" d="M50.6,9H39.9V0.8h10.7C50.6,0.8,50.6,9,50.6,9z M50.6,60H39.9V18.9h10.7C50.6,18.9,50.6,60,50.6,60z"/>
	<path class="st0" d="M78.8,60c-0.4-0.9-0.7-1.9-1-3s-0.5-2.2-0.6-3.3c-0.9,2-2.1,3.7-3.6,5s-3.3,2-5.4,2c-3.7,0-6.6-1.1-8.6-3.3
		s-3-5.2-3-9c0-4,1.3-7.1,4-9.3c2.6-2.2,6.6-3.3,11.9-3.3H77v-3.4c0-2-0.4-3.6-1.1-4.7C75.1,26.6,74,26,72.5,26
		c-1.3,0-2.3,0.4-3,1.3s-1,2.2-1,3.8H58.2l-0.1-0.2c-0.2-3.5,1.2-6.6,4-9c2.8-2.5,6.5-3.7,11.1-3.7c4.3,0,7.8,1.2,10.5,3.7
		s4,6,4,10.6v16.9c0,1.9,0.1,3.7,0.4,5.5c0.3,1.7,0.7,3.4,1.3,5.2H78.8V60z M70.9,52.9c1.4,0,2.7-0.4,3.8-1.3
		c1.1-0.9,1.9-1.9,2.3-3.2v-6.5h-4.7c-1.8,0-3.1,0.6-3.9,1.7c-0.8,1.2-1.2,2.6-1.2,4.4c0,1.4,0.3,2.6,1,3.5
		C68.9,52.4,69.8,52.9,70.9,52.9z"/>
	<path class="st0" d="M104.4,18.9l0.5,5.7c1.2-2.1,2.6-3.6,4.3-4.8c1.7-1.1,3.6-1.7,5.6-1.7c3.5,0,6.2,1.4,8.2,4.1s3,7,3,12.8v25
		h-10.7V35.1c0-3.1-0.4-5.3-1.1-6.5c-0.7-1.3-1.9-1.9-3.4-1.9c-1.2,0-2.3,0.3-3.2,0.8c-0.9,0.6-1.8,1.3-2.4,2.4V60H94.4V18.9H104.4z
		"/>
	<path class="st1" d="M142.9,18.9l0.4,5.3c1.1-1.9,2.5-3.4,4.2-4.5s3.6-1.6,5.8-1.6c2.1,0,4,0.6,5.6,1.7s2.8,2.8,3.6,5.1
		c1.1-2.1,2.5-3.8,4.2-5s3.7-1.8,6-1.8c3.4,0,6.2,1.4,8.2,4.3s3,7.3,3,13.2V60h-10.7V35.7c0-3.5-0.4-5.9-1.1-7.2
		c-0.7-1.3-1.9-2-3.4-2c-1.1,0-2.1,0.3-3,1c-0.9,0.6-1.6,1.5-2.1,2.7c0,0.6,0.1,1.2,0.1,1.6c0,0.5,0.1,0.9,0.1,1.4V60H153V35.7
		c0-3.4-0.4-5.8-1.1-7.1c-0.7-1.3-1.9-2-3.4-2c-1,0-2,0.3-2.8,0.8s-1.5,1.2-2.1,2.2V60h-10.7V18.9H142.9z"/>
	<path class="st1" d="M206.7,60.8c-5.4,0-9.6-1.9-12.6-5.6c-3-3.7-4.5-8.6-4.5-14.5v-1.6c0-6.2,1.4-11.2,4.3-15.1
		c2.9-3.9,6.9-5.8,12.1-5.8c4.8,0,8.5,1.7,11.1,5S221,31,221,36.7v5.8h-20.7c0.2,3,0.9,5.5,2.1,7.3c1.2,1.8,3.1,2.7,5.6,2.7
		c2.1,0,3.9-0.2,5.3-0.7c1.4-0.5,3-1.3,4.6-2.3l2.8,6.7c-1.5,1.3-3.4,2.5-5.9,3.4C212.2,60.3,209.5,60.8,206.7,60.8z M206,26.6
		c-1.8,0-3.1,0.8-4,2.4s-1.4,3.8-1.7,6.5h10.2v-0.9c0-2.5-0.3-4.5-1-5.8C208.8,27.3,207.6,26.6,206,26.6z"/>
	<path class="st1" d="M225.1,39.7c0-6.5,1.2-11.7,3.6-15.6c2.4-3.9,5.8-5.9,10.2-5.9c1.6,0,3.1,0.4,4.5,1.2c1.3,0.8,2.5,1.9,3.5,3.3
		V0.8h10.7V60h-9.1l-0.8-4.6c-1.1,1.8-2.4,3.1-3.8,4c-1.5,0.9-3.1,1.4-5,1.4c-4.4,0-7.7-1.9-10.1-5.6c-2.4-3.7-3.6-8.6-3.6-14.7
		L225.1,39.7L225.1,39.7z M235.7,40.5c0,3.7,0.5,6.6,1.4,8.7c0.9,2.1,2.4,3.2,4.5,3.2c1.2,0,2.2-0.3,3.1-0.8
		c0.9-0.5,1.6-1.3,2.2-2.4V30.3c-0.6-1.2-1.3-2.1-2.2-2.7c-0.9-0.7-1.9-1-3-1c-2.1,0-3.6,1.2-4.5,3.6s-1.4,5.6-1.4,9.5v0.8H235.7z"
		/>
	<path class="st1" d="M276,9h-10.7V0.8H276V9z M276,60h-10.7V18.9H276V60z"/>
	<path class="st1" d="M304.1,60c-0.4-0.9-0.7-1.9-1-3s-0.5-2.2-0.6-3.3c-0.9,2-2.1,3.7-3.6,5s-3.3,2-5.4,2c-3.7,0-6.6-1.1-8.6-3.3
		s-3-5.2-3-9c0-4,1.3-7.1,4-9.3c2.6-2.2,6.6-3.3,11.9-3.3h4.7v-3.4c0-2-0.4-3.6-1.1-4.7c-0.8-1.1-1.9-1.7-3.4-1.7
		c-1.3,0-2.3,0.4-3,1.3s-1,2.2-1,3.8h-10.3l-0.1-0.2c-0.2-3.5,1.2-6.6,4-9c2.8-2.5,6.5-3.7,11.1-3.7c4.3,0,7.8,1.2,10.5,3.7
		s4,6,4,10.6v16.9c0,1.9,0.1,3.7,0.4,5.5c0.3,1.7,0.7,3.4,1.3,5.2h-10.8V60z M296.3,52.9c1.4,0,2.7-0.4,3.8-1.3
		c1.1-0.9,1.9-1.9,2.3-3.2v-6.5h-4.7c-1.8,0-3.1,0.6-3.9,1.7c-0.8,1.2-1.2,2.6-1.2,4.4c0,1.4,0.3,2.6,1,3.5
		C294.2,52.4,295.1,52.9,296.3,52.9z"/>
</g>
</svg>
