<svg width="182" height="48" viewBox="0 0 182 48" fill="none" xmlns="http://www.w3.org/2000/svg">
<path d="M23.9998 0.000170252C19.2492 0.000203822 14.6055 1.41008 10.6568 4.05124C6.70809 6.69239 3.63204 10.446 1.81822 14.8367C0.0044094 19.2273 -0.465571 24.0575 0.467807 28.7155C1.40119 33.3735 3.69593 37.6497 7.06141 41.0025C10.4269 44.3553 14.7117 46.634 19.3732 47.5498C24.0346 48.4656 28.863 47.9774 33.2468 46.1471C37.6306 44.3168 41.3726 41.2266 43.9989 37.268C46.6252 33.3094 48.0175 28.6604 47.9997 23.9099C47.9997 20.7624 47.3783 17.6459 46.1711 14.7391C44.9639 11.8324 43.1946 9.19258 40.9648 6.97118C38.735 4.74977 36.0886 2.99048 33.1773 1.79423C30.266 0.59797 27.1472 -0.011707 23.9998 0.000170252ZM33.2027 37.8948C32.496 37.8949 31.7963 37.7542 31.1445 37.4811C30.4927 37.208 29.9018 36.8078 29.4063 36.3038C28.9108 35.7999 28.5206 35.2024 28.2585 34.5461C27.9963 33.8898 27.8675 33.1879 27.8794 32.4813C27.8643 31.3256 28.2389 30.1986 28.9428 29.2819C29.6467 28.3653 30.6388 27.7124 31.7591 27.4286V16.0603C31.7591 13.2633 30.8569 13.0828 29.7742 13.0828C28.6915 13.0828 28.1501 13.3535 27.699 16.2407V17.143C27.3381 19.2181 27.0674 21.3835 26.7967 24.1805C26.5261 26.9775 26.1652 29.5038 25.8043 31.9399C25.4434 34.376 22.8268 37.8948 19.5787 37.8948C17.9588 37.8715 16.4118 37.2176 15.2662 36.072C14.1206 34.9264 13.4667 33.3794 13.4434 31.7594V20.4813C12.206 20.1327 11.1365 19.348 10.4326 18.2722C9.72869 17.1965 9.43785 15.9023 9.61382 14.6288C9.7898 13.3553 10.4207 12.1885 11.39 11.344C12.3592 10.4994 13.6014 10.0342 14.887 10.0342C16.1726 10.0342 17.4148 10.4994 18.384 11.344C19.3533 12.1885 19.9842 13.3553 20.1602 14.6288C20.3362 15.9023 20.0453 17.1965 19.3414 18.2722C18.6375 19.348 17.568 20.1327 16.3306 20.4813V31.7594C16.3306 32.186 16.4146 32.6084 16.5779 33.0024C16.7411 33.3965 16.9803 33.7546 17.282 34.0562C17.5836 34.3578 17.9416 34.5971 18.3357 34.7603C18.7298 34.9235 19.1522 35.0076 19.5787 35.0076C21.4734 35.0076 22.6464 32.9324 22.9171 31.4888C23.1877 30.0452 23.5486 26.8873 23.8193 23.9099C24.09 20.9324 24.4509 18.8572 24.8118 16.7821V15.7896C25.0825 13.8949 25.6238 10.2858 29.6839 10.2858C31.4885 10.2858 34.5561 11.0076 34.5561 16.0603V27.4286C35.6932 27.6949 36.7058 28.3403 37.4273 29.2586C38.1488 30.1769 38.5363 31.3134 38.526 32.4813C38.538 33.1879 38.4092 33.8898 38.147 34.5461C37.8849 35.2024 37.4946 35.7999 36.9991 36.3038C36.5036 36.8078 35.9127 37.208 35.2609 37.4811C34.6091 37.7542 33.9095 37.8949 33.2027 37.8948Z" fill="white"/>
<path d="M33.2026 30.0449C32.6992 30.0452 32.2073 30.196 31.7902 30.4778C31.373 30.7595 31.0495 31.1596 30.8612 31.6265C30.673 32.0934 30.6285 32.6059 30.7335 33.0982C30.8385 33.5906 31.0882 34.0403 31.4506 34.3898C31.813 34.7392 32.2716 34.9724 32.7674 35.0595C33.2632 35.1465 33.7738 35.0834 34.2335 34.8783C34.6933 34.6732 35.0813 34.3354 35.3477 33.9083C35.6142 33.4811 35.7469 32.9841 35.7289 32.481C35.7055 31.8267 35.4291 31.2071 34.9578 30.7527C34.4866 30.2982 33.8573 30.0445 33.2026 30.0449Z" fill="white"/>
<path d="M17.4134 15.3388C17.4134 14.8392 17.2652 14.3507 16.9876 13.9353C16.71 13.5198 16.3155 13.196 15.8539 13.0048C15.3922 12.8136 14.8843 12.7636 14.3942 12.861C13.9042 12.9585 13.454 13.1991 13.1007 13.5524C12.7474 13.9057 12.5068 14.3559 12.4093 14.8459C12.3118 15.336 12.3619 15.844 12.5531 16.3056C12.7443 16.7672 13.0681 17.1618 13.4835 17.4394C13.899 17.7169 14.3874 17.8651 14.8871 17.8651C15.5571 17.8651 16.1997 17.5989 16.6735 17.1252C17.1472 16.6514 17.4134 16.0088 17.4134 15.3388Z" fill="white"/>
<path d="M62.8868 34.3772H59.6387V16.0615H62.0748V31.2194L71.9996 16.0615H75.2477V34.3772H72.7214V19.039L62.8868 34.3772Z" fill="white"/>
<path d="M90.9469 34.3762H88.4206V28.2409H81.6537V34.3762H79.1274V20.7522H81.6537V26.4364H88.4206V20.7522H90.9469V34.3762Z" fill="white"/>
<path d="M106.375 22.5567H101.052V34.3762H98.4355V22.5567H93.1122V20.7522H106.375V22.5567Z" fill="white"/>
<path d="M119.819 28.1517H110.616V30.2269C110.587 30.6165 110.664 31.0067 110.839 31.3561C111.013 31.7056 111.279 32.0013 111.609 32.2118C112.583 32.7084 113.676 32.9269 114.766 32.8434C116.293 32.7764 117.807 32.5342 119.278 32.1216V34.1065C117.525 34.4606 115.742 34.6419 113.954 34.6479C112.474 34.7391 111 34.394 109.714 33.6554C109.157 33.3473 108.699 32.8863 108.396 32.3268C108.092 31.7673 107.954 31.1326 108 30.4975V25.084C107.956 24.4129 108.063 23.7405 108.313 23.1161C108.562 22.4916 108.949 21.9309 109.443 21.475C110.829 20.6499 112.436 20.2718 114.045 20.3923C115.568 20.2669 117.09 20.6475 118.375 21.475C119.368 22.1968 119.819 23.3697 119.819 25.084V28.1517ZM117.203 26.4374V24.272C117.249 23.9476 117.207 23.6167 117.08 23.3147C116.952 23.0127 116.745 22.751 116.481 22.5577C115.715 22.2178 114.881 22.0633 114.045 22.1066C113.15 22.0671 112.258 22.2209 111.428 22.5577C111.147 22.7399 110.922 22.9968 110.779 23.2995C110.635 23.6023 110.579 23.939 110.616 24.272V26.4374H117.203Z" fill="white"/>
<path d="M124.06 30.5867V20.7522H134.977V34.3762H132.451V22.5567H126.496V30.4063C126.518 31.1674 126.427 31.9277 126.225 32.6619C126.054 33.162 125.74 33.6011 125.323 33.9251C124.875 34.1839 124.387 34.3668 123.879 34.4664H120.992V33.0228C121.842 33.13 122.703 32.9386 123.428 32.4815C123.666 32.2316 123.846 31.9322 123.956 31.6047C124.065 31.2772 124.1 30.9296 124.06 30.5867Z" fill="white"/>
<path d="M141.473 34.3765H138.676V16.0608H141.473V24.0006C141.996 24.077 142.53 23.9876 142.999 23.7448C143.468 23.502 143.85 23.1182 144.09 22.6472L146.616 18.6773C147.058 17.8094 147.709 17.0652 148.511 16.5119C149.364 16.1462 150.292 15.9915 151.217 16.0608H152.481V17.9555H151.037C150.579 17.9684 150.137 18.1264 149.774 18.4067C149.346 18.8888 148.954 19.4014 148.601 19.9405L146.796 22.9179C146.503 23.4459 146.138 23.9315 145.714 24.3615L144.451 24.9931C145.082 25.1736 146.526 26.3465 148.601 28.6923L153.744 34.3765H150.225L145.172 28.6923C144.464 27.84 143.679 27.0547 142.826 26.3465C142.424 26.0778 141.956 25.922 141.473 25.8954V34.3765Z" fill="white"/>
<path d="M166.826 25.3539V30.0456C166.849 30.777 166.758 31.5076 166.556 32.211C166.443 32.7397 166.157 33.2158 165.744 33.5643C165.382 33.9444 164.907 34.1975 164.39 34.2861L162.676 34.647H157.894C157.241 34.5508 156.604 34.3688 155.999 34.1057C155.682 33.9782 155.397 33.7829 155.163 33.5336C154.929 33.2842 154.753 32.9868 154.646 32.6621C154.36 31.8521 154.237 30.9935 154.285 30.1358V25.3539C154.27 24.5633 154.361 23.7743 154.556 23.008C154.767 22.4958 155.04 22.011 155.368 21.5644C155.765 21.2341 156.225 20.9884 156.721 20.8426L158.435 20.4817H162.676L164.39 20.8426C164.886 20.9884 165.346 21.2341 165.744 21.5644C166.072 22.011 166.344 22.4958 166.556 23.008C166.75 23.7743 166.841 24.5633 166.826 25.3539ZM164.3 30.4065V24.9027C164.3 23.6396 164.029 22.8275 163.488 22.5569C162.57 22.198 161.585 22.044 160.601 22.1057C159.587 22.0366 158.571 22.1906 157.623 22.5569C157.082 22.8275 156.811 23.6396 156.811 24.9027V30.4065C156.787 30.9023 156.88 31.3968 157.082 31.8501C157.134 32.0306 157.226 32.1972 157.351 32.3376C157.476 32.4781 157.631 32.589 157.804 32.6621C158.139 32.8349 158.51 32.9275 158.887 32.9328H162.225C162.602 32.9275 162.972 32.8349 163.308 32.6621C163.481 32.589 163.635 32.4781 163.76 32.3376C163.885 32.1972 163.977 32.0306 164.029 31.8501C164.232 31.3968 164.325 30.9023 164.3 30.4065Z" fill="white"/>
<path d="M181.894 34.3762H179.368V28.2409H172.691V34.3762H170.075V20.7522H172.691V26.4364H179.368V20.7522H181.894V34.3762Z" fill="white"/>
</svg>
