<svg width="32" height="32" viewBox="0 0 32 32" fill="none" xmlns="http://www.w3.org/2000/svg">
<path d="M15.9998 0.000113501C12.8328 0.000135881 9.73699 0.940053 7.10452 2.70082C4.47206 4.46159 2.42136 6.964 1.21215 9.89112C0.00293958 12.8182 -0.310381 16.0384 0.311871 19.1437C0.934124 22.249 2.46395 25.0998 4.70761 27.335C6.95126 29.5702 9.8078 31.0893 12.9154 31.6999C16.0231 32.3104 19.242 31.985 22.1645 30.7647C25.0871 29.5445 27.5817 27.4844 29.3326 24.8453C31.0834 22.2062 32.0117 19.1069 31.9998 15.9399C31.9998 13.8416 31.5855 11.7639 30.7807 9.82609C29.9759 7.88825 28.7964 6.12839 27.3099 4.64745C25.8233 3.16652 24.0591 1.99365 22.1182 1.19615C20.1773 0.398647 18.0981 -0.00780466 15.9998 0.000113501ZM22.1352 25.2632C21.664 25.2632 21.1976 25.1695 20.763 24.9874C20.3285 24.8053 19.9346 24.5385 19.6042 24.2026C19.2739 23.8666 19.0137 23.4683 18.839 23.0307C18.6642 22.5932 18.5783 22.1252 18.5863 21.6542C18.5762 20.8837 18.826 20.1324 19.2952 19.5213C19.7644 18.9102 20.4258 18.4749 21.1727 18.2858V10.7068C21.1727 8.84219 20.5712 8.72189 19.8494 8.72189C19.1276 8.72189 18.7667 8.90234 18.466 10.8271V11.4286C18.2254 12.8121 18.0449 14.2557 17.8645 16.1204C17.684 17.985 17.4434 19.6692 17.2028 21.2933C16.9622 22.9173 15.2179 25.2632 13.0525 25.2632C11.9725 25.2476 10.9412 24.8117 10.1774 24.048C9.41373 23.2843 8.97781 22.2529 8.96227 21.173V13.6542C8.13732 13.4218 7.42435 12.8987 6.95507 12.1815C6.48579 11.4643 6.2919 10.6015 6.40921 9.75255C6.52653 8.90355 6.94713 8.1257 7.59331 7.56266C8.2395 6.99963 9.0676 6.68947 9.92467 6.68947C10.7817 6.68947 11.6098 6.99963 12.256 7.56266C12.9022 8.1257 13.3228 8.90355 13.4401 9.75255C13.5574 10.6015 13.3635 11.4643 12.8943 12.1815C12.425 12.8987 11.712 13.4218 10.8871 13.6542V21.173C10.8871 21.4573 10.9431 21.7389 11.0519 22.0016C11.1607 22.2643 11.3202 22.5031 11.5213 22.7041C11.7224 22.9052 11.9611 23.0647 12.2238 23.1735C12.4865 23.2824 12.7681 23.3384 13.0525 23.3384C14.3156 23.3384 15.0976 21.9549 15.278 20.9925C15.4585 20.0301 15.6991 17.9249 15.8795 15.9399C16.06 13.9549 16.3006 12.5715 16.5412 11.188V10.5264C16.7216 9.26324 17.0825 6.85723 19.7893 6.85723C20.9923 6.85723 23.0374 7.33843 23.0374 10.7068V18.2858C23.7955 18.4633 24.4705 18.8936 24.9515 19.5058C25.4325 20.118 25.6909 20.8756 25.684 21.6542C25.692 22.1252 25.6061 22.5932 25.4313 23.0307C25.2566 23.4683 24.9964 23.8666 24.6661 24.2026C24.3357 24.5385 23.9418 24.8053 23.5073 24.9874C23.0727 25.1695 22.6063 25.2632 22.1352 25.2632Z" fill="#0069B4"/>
<path d="M22.1351 20.0301C21.7995 20.0303 21.4716 20.1308 21.1935 20.3187C20.9154 20.5065 20.6997 20.7732 20.5742 21.0845C20.4487 21.3957 20.4191 21.7374 20.4891 22.0656C20.5591 22.3939 20.7256 22.6937 20.9672 22.9267C21.2088 23.1596 21.5144 23.3151 21.845 23.3731C22.1756 23.4312 22.5159 23.3891 22.8224 23.2524C23.1289 23.1156 23.3876 22.8904 23.5652 22.6057C23.7428 22.3209 23.8313 21.9896 23.8194 21.6542C23.8038 21.218 23.6195 20.8049 23.3053 20.5019C22.9911 20.199 22.5716 20.0298 22.1351 20.0301Z" fill="#0069B4"/>
<path d="M11.6089 10.2256C11.6089 9.89253 11.5101 9.5669 11.325 9.28994C11.14 9.01297 10.8769 8.7971 10.5692 8.66963C10.2614 8.54216 9.9228 8.5088 9.5961 8.57379C9.26939 8.63877 8.9693 8.79918 8.73376 9.03472C8.49822 9.27026 8.33781 9.57036 8.27283 9.89706C8.20784 10.2238 8.24119 10.5624 8.36867 10.8701C8.49614 11.1779 8.71201 11.4409 8.98897 11.626C9.26594 11.8111 9.59156 11.9098 9.92467 11.9098C10.3713 11.9098 10.7997 11.7324 11.1156 11.4165C11.4314 11.1007 11.6089 10.6723 11.6089 10.2256Z" fill="#0069B4"/>
</svg>
