<svg width="122" height="32" viewBox="0 0 122 32" fill="none" xmlns="http://www.w3.org/2000/svg">
<path d="M15.9998 0.000113501C12.8328 0.000135881 9.73699 0.940053 7.10452 2.70082C4.47206 4.46159 2.42136 6.964 1.21215 9.89112C0.00293958 12.8182 -0.310381 16.0384 0.311871 19.1437C0.934124 22.249 2.46395 25.0998 4.70761 27.335C6.95126 29.5702 9.8078 31.0893 12.9154 31.6999C16.0231 32.3104 19.242 31.985 22.1645 30.7647C25.0871 29.5445 27.5817 27.4844 29.3326 24.8453C31.0834 22.2062 32.0117 19.1069 31.9998 15.9399C31.9998 13.8416 31.5855 11.7639 30.7807 9.82609C29.9759 7.88825 28.7964 6.12839 27.3099 4.64745C25.8233 3.16652 24.0591 1.99365 22.1182 1.19615C20.1773 0.398647 18.0981 -0.00780466 15.9998 0.000113501ZM22.1352 25.2632C21.664 25.2632 21.1976 25.1695 20.763 24.9874C20.3285 24.8053 19.9346 24.5385 19.6042 24.2026C19.2739 23.8666 19.0137 23.4683 18.839 23.0307C18.6642 22.5932 18.5783 22.1252 18.5863 21.6542C18.5762 20.8837 18.826 20.1324 19.2952 19.5213C19.7644 18.9102 20.4258 18.4749 21.1727 18.2858V10.7068C21.1727 8.84219 20.5712 8.72189 19.8494 8.72189C19.1276 8.72189 18.7667 8.90234 18.466 10.8271V11.4286C18.2254 12.8121 18.0449 14.2557 17.8645 16.1204C17.684 17.985 17.4434 19.6692 17.2028 21.2933C16.9622 22.9173 15.2179 25.2632 13.0525 25.2632C11.9725 25.2476 10.9412 24.8117 10.1774 24.048C9.41373 23.2843 8.97781 22.2529 8.96227 21.173V13.6542C8.13732 13.4218 7.42435 12.8987 6.95507 12.1815C6.48579 11.4643 6.2919 10.6015 6.40921 9.75255C6.52653 8.90355 6.94713 8.1257 7.59331 7.56266C8.2395 6.99963 9.0676 6.68947 9.92467 6.68947C10.7817 6.68947 11.6098 6.99963 12.256 7.56266C12.9022 8.1257 13.3228 8.90355 13.4401 9.75255C13.5574 10.6015 13.3635 11.4643 12.8943 12.1815C12.425 12.8987 11.712 13.4218 10.8871 13.6542V21.173C10.8871 21.4573 10.9431 21.7389 11.0519 22.0016C11.1607 22.2643 11.3202 22.5031 11.5213 22.7041C11.7224 22.9052 11.9611 23.0647 12.2238 23.1735C12.4865 23.2824 12.7681 23.3384 13.0525 23.3384C14.3156 23.3384 15.0976 21.9549 15.278 20.9925C15.4585 20.0301 15.6991 17.9249 15.8795 15.9399C16.06 13.9549 16.3006 12.5715 16.5412 11.188V10.5264C16.7216 9.26324 17.0825 6.85723 19.7893 6.85723C20.9923 6.85723 23.0374 7.33843 23.0374 10.7068V18.2858C23.7955 18.4633 24.4705 18.8936 24.9515 19.5058C25.4325 20.118 25.6909 20.8756 25.684 21.6542C25.692 22.1252 25.6061 22.5932 25.4313 23.0307C25.2566 23.4683 24.9964 23.8666 24.6661 24.2026C24.3357 24.5385 23.9418 24.8053 23.5073 24.9874C23.0727 25.1695 22.6063 25.2632 22.1352 25.2632Z" fill="#0069B4"/>
<path d="M22.1351 20.0301C21.7995 20.0303 21.4716 20.1308 21.1935 20.3187C20.9154 20.5065 20.6997 20.7732 20.5742 21.0845C20.4487 21.3957 20.4191 21.7374 20.4891 22.0656C20.5591 22.3939 20.7256 22.6937 20.9672 22.9267C21.2088 23.1596 21.5144 23.3151 21.845 23.3731C22.1756 23.4312 22.5159 23.3891 22.8224 23.2524C23.1289 23.1156 23.3876 22.8904 23.5652 22.6057C23.7428 22.3209 23.8313 21.9896 23.8194 21.6542C23.8038 21.218 23.6195 20.8049 23.3053 20.5019C22.9911 20.199 22.5716 20.0298 22.1351 20.0301Z" fill="#0069B4"/>
<path d="M11.6089 10.2256C11.6089 9.89253 11.5101 9.5669 11.325 9.28994C11.14 9.01297 10.8769 8.7971 10.5692 8.66963C10.2614 8.54216 9.9228 8.5088 9.5961 8.57379C9.26939 8.63877 8.9693 8.79918 8.73376 9.03472C8.49822 9.27026 8.33781 9.57036 8.27283 9.89706C8.20784 10.2238 8.24119 10.5624 8.36867 10.8701C8.49614 11.1779 8.71201 11.4409 8.98897 11.626C9.26594 11.8111 9.59156 11.9098 9.92467 11.9098C10.3713 11.9098 10.7997 11.7324 11.1156 11.4165C11.4314 11.1007 11.6089 10.6723 11.6089 10.2256Z" fill="#0069B4"/>
<path d="M41.9245 22.9178H39.7591V10.7073H41.3832V20.8125L47.9997 10.7073H50.1651V22.9178H48.4809V12.6922L41.9245 22.9178Z" fill="#0069B4"/>
<path d="M60.6312 22.9173H58.947V18.8271H54.4358V22.9173H52.7516V13.8346H54.4358V17.6241H58.947V13.8346H60.6312V22.9173Z" fill="#0069B4"/>
<path d="M70.9169 15.0376H67.3681V22.9173H65.6237V15.0376H62.0749V13.8346H70.9169V15.0376Z" fill="#0069B4"/>
<path d="M79.8793 18.7669H73.744V20.1504C73.7246 20.4101 73.7759 20.6703 73.8924 20.9033C74.0089 21.1362 74.1862 21.3333 74.4056 21.4737C75.0554 21.8047 75.7838 21.9504 76.5109 21.8948C77.5285 21.8501 78.5376 21.6887 79.5184 21.4136V22.7369C78.3501 22.9729 77.1614 23.0938 75.9695 23.0978C74.9827 23.1586 73.9998 22.9285 73.1425 22.4361C72.7711 22.2307 72.4661 21.9234 72.2637 21.5504C72.0612 21.1773 71.9696 20.7542 71.9996 20.3309V16.7218C71.9706 16.2744 72.0419 15.8262 72.2084 15.4099C72.3749 14.9936 72.6324 14.6198 72.962 14.3158C73.8861 13.7657 74.9573 13.5137 76.0297 13.594C77.0453 13.5105 78.0601 13.7642 78.9169 14.3158C79.5786 14.797 79.8793 15.579 79.8793 16.7218V18.7669ZM78.1349 17.6241V16.1805C78.1661 15.9643 78.1377 15.7436 78.0529 15.5423C77.9682 15.3409 77.8302 15.1665 77.6537 15.0376C77.1436 14.8111 76.5872 14.708 76.0297 14.7369C75.4334 14.7105 74.8384 14.8131 74.2853 15.0376C74.0979 15.1591 73.948 15.3303 73.8524 15.5322C73.7568 15.734 73.7192 15.9585 73.744 16.1805V17.6241H78.1349Z" fill="#0069B4"/>
<path d="M82.7063 20.391V13.8346H89.9845V22.9173H88.3003V15.0376H84.3304V20.2707C84.3452 20.7781 84.2844 21.2849 84.15 21.7745C84.036 22.1079 83.8269 22.4006 83.5485 22.6166C83.2497 22.7891 82.9246 22.9111 82.586 22.9775H80.6612V22.0151C81.2281 22.0865 81.8021 21.9589 82.2853 21.6542C82.4441 21.4876 82.5642 21.288 82.637 21.0696C82.7098 20.8513 82.7334 20.6196 82.7063 20.391Z" fill="#0069B4"/>
<path d="M94.3153 22.9173H92.4507V10.7068H94.3153V16C94.6639 16.051 95.0197 15.9913 95.3326 15.8295C95.6455 15.6676 95.8998 15.4117 96.0597 15.0978L97.7439 12.4512C98.0385 11.8726 98.4726 11.3764 99.007 11.0076C99.5756 10.7638 100.195 10.6606 100.812 10.7068H101.654V11.97H100.691C100.386 11.9786 100.091 12.0839 99.8491 12.2707C99.564 12.5921 99.3027 12.9339 99.0672 13.2933L97.8642 15.2782C97.6682 15.6302 97.4254 15.954 97.1424 16.2406L96.3003 16.6617C96.7213 16.782 97.6837 17.5639 99.0672 19.1278L102.496 22.9173H100.15L96.7815 19.1278C96.3093 18.5596 95.7858 18.0361 95.2176 17.5639C94.9491 17.3848 94.6376 17.281 94.3153 17.2632V22.9173Z" fill="#0069B4"/>
<path d="M111.218 16.9023V20.0301C111.233 20.5178 111.172 21.0048 111.037 21.4737C110.962 21.8262 110.771 22.1436 110.496 22.376C110.255 22.6293 109.938 22.7981 109.593 22.8572L108.451 23.0978H105.263C104.828 23.0336 104.403 22.9123 103.999 22.7369C103.788 22.6519 103.598 22.5217 103.442 22.3555C103.286 22.1892 103.168 21.9909 103.097 21.7745C102.906 21.2345 102.825 20.662 102.857 20.0903V16.9023C102.847 16.3753 102.907 15.8493 103.037 15.3384C103.178 14.9969 103.36 14.6737 103.578 14.376C103.843 14.1558 104.15 13.992 104.481 13.8948L105.624 13.6542H108.451L109.593 13.8948C109.924 13.992 110.231 14.1558 110.496 14.376C110.714 14.6737 110.896 14.9969 111.037 15.3384C111.167 15.8493 111.228 16.3753 111.218 16.9023ZM109.533 20.2707V16.6015C109.533 15.7594 109.353 15.2181 108.992 15.0376C108.38 14.7984 107.723 14.6958 107.067 14.7369C106.391 14.6908 105.714 14.7935 105.082 15.0376C104.721 15.2181 104.541 15.7594 104.541 16.6015V20.2707C104.525 20.6012 104.586 20.9309 104.721 21.2331C104.756 21.3535 104.817 21.4645 104.901 21.5582C104.984 21.6518 105.087 21.7257 105.202 21.7745C105.426 21.8897 105.673 21.9514 105.924 21.9549H108.15C108.401 21.9514 108.648 21.8897 108.872 21.7745C108.987 21.7257 109.09 21.6518 109.173 21.5582C109.257 21.4645 109.318 21.3535 109.353 21.2331C109.488 20.9309 109.55 20.6012 109.533 20.2707Z" fill="#0069B4"/>
<path d="M121.263 22.9173H119.578V18.8271H115.127V22.9173H113.383V13.8346H115.127V17.6241H119.578V13.8346H121.263V22.9173Z" fill="#0069B4"/>
</svg>
